<?xml version="1.0" standalone="no"?><!DOCTYPE svg PUBLIC "-//W3C//DTD SVG 1.1//EN" "http://www.w3.org/Graphics/SVG/1.1/DTD/svg11.dtd"><svg t="1655888233059" class="icon" viewBox="0 0 1024 1024" version="1.1" xmlns="http://www.w3.org/2000/svg" p-id="1925" xmlns:xlink="http://www.w3.org/1999/xlink" width="200" height="200"><defs><style type="text/css"></style></defs><path d="M596.2752 656.9472m-179.0976 0a179.0976 179.0976 0 1 0 358.1952 0 179.0976 179.0976 0 1 0-358.1952 0Z" fill="#FFBE0A" p-id="1926"></path><path d="M515.584 923.4432c-226.8672 0-411.4432-184.576-411.4432-411.4432s184.576-411.4432 411.4432-411.4432 411.4432 184.576 411.4432 411.4432-184.576 411.4432-411.4432 411.4432z m0-751.2064c-187.3408 0-339.7632 152.4224-339.7632 339.7632s152.4224 339.7632 339.7632 339.7632 339.7632-152.4224 339.7632-339.7632-152.4224-339.7632-339.7632-339.7632z" fill="#34332E" p-id="1927"></path><path d="M687.7184 542.72H347.1872c-19.8144 0-35.84-16.0256-35.84-35.84s16.0256-35.84 35.84-35.84h340.5312c19.8144 0 35.84 16.0256 35.84 35.84s-16.0256 35.84-35.84 35.84z" fill="#34332E" p-id="1928"></path></svg>