<?xml version="1.0" standalone="no"?><!DOCTYPE svg PUBLIC "-//W3C//DTD SVG 1.1//EN" "http://www.w3.org/Graphics/SVG/1.1/DTD/svg11.dtd"><svg t="1655887871805" class="icon" viewBox="0 0 1024 1024" version="1.1" xmlns="http://www.w3.org/2000/svg" p-id="1202" xmlns:xlink="http://www.w3.org/1999/xlink" width="200" height="200"><defs><style type="text/css"></style></defs><path d="M685.056 715.2128m-179.0976 0a179.0976 179.0976 0 1 0 358.1952 0 179.0976 179.0976 0 1 0-358.1952 0Z" fill="#FFBE0A" p-id="1203"></path><path d="M487.9872 531.456h13.9264c1.4848 0 2.9184-0.1024 4.352-0.3072 115.9168-5.888 208.4352-102.0928 208.4352-219.4432 0-121.1392-98.56-219.7504-219.7504-219.7504S275.2512 190.5664 275.2512 311.7056c0 69.632 32.6144 131.7888 83.3024 172.0832-135.9872 52.224-232.8064 184.1152-232.8064 338.2272 0 41.8816 34.048 75.9296 75.9296 75.9296h260.5568c19.8144 0 35.84-16.0256 35.84-35.84s-16.0256-35.84-35.84-35.84H201.6768c-2.3552 0-4.2496-1.8944-4.2496-4.2496 0-160.2048 130.3552-290.56 290.56-290.56z m6.9632-367.7696c81.664 0 148.0704 66.4064 148.0704 148.0704S576.6144 459.776 494.9504 459.776 346.9312 393.3696 346.9312 311.7056s66.4064-148.0192 148.0192-148.0192z" fill="#34332E" p-id="1204"></path><path d="M808.4992 675.0208l77.6192-77.6192a35.87584 35.87584 0 0 0 0-50.688 35.87584 35.87584 0 0 0-50.688 0l-77.6192 77.6192-77.6192-77.6192a35.87584 35.87584 0 0 0-50.688 0 35.87584 35.87584 0 0 0 0 50.688l77.6192 77.6192L629.504 752.64a35.87584 35.87584 0 0 0 0 50.688 35.70176 35.70176 0 0 0 25.344 10.496c9.1648 0 18.3296-3.4816 25.344-10.496l77.6192-77.6192 77.6192 77.6192c7.0144 7.0144 16.1792 10.496 25.344 10.496s18.3296-3.4816 25.344-10.496a35.87584 35.87584 0 0 0 0-50.688l-77.6192-77.6192z" fill="#34332E" p-id="1205"></path></svg>